<?xml version="1.0" encoding="utf-8"?>
<!-- Generator: Adobe Illustrator 25.2.3, SVG Export Plug-In . SVG Version: 6.00 Build 0)  -->
<svg version="1.1" id="Capa_1" xmlns="http://www.w3.org/2000/svg" xmlns:xlink="http://www.w3.org/1999/xlink" x="0px" y="0px"
	 viewBox="0 0 421.76 643.38" style="enable-background:new 0 0 421.76 643.38;" xml:space="preserve">
<style type="text/css">
	.st0{fill:#CCCCCC;}
	.st1{font-family:'GothamBlack';}
	.st2{font-size:190.7113px;}
	.st3{fill:#F2F2F2;}
	.st4{fill:#E82938;}
	.st5{fill:#291908;}
</style>
<g>
	<text transform="matrix(1 0 0 1 170.6403 270.2462)" class="st0 st1 st2">1</text>
</g>
<g id="XMLID_1_">
	<g id="XMLID_3_">
		<path class="st3" d="M210.88,552.72c-162.05-2.91-162.02-243.73,0.01-246.61C372.93,309.02,372.9,549.84,210.88,552.72z"/>
		<path id="XMLID_4_" class="st4" d="M321.87,429.42c-2.49,145.9-219.51,145.87-221.98,0C102.38,283.52,319.4,283.54,321.87,429.42z
			"/>
	</g>
	<g id="XMLID_2_">
		<path class="st5" d="M151.9,423.45c-1.87,0-3.68-0.98-4.67-2.72c-1.46-2.58-0.56-5.85,2.02-7.31l18.21-10.32l-18.42-10.45
			c-2.58-1.46-3.48-4.74-2.02-7.31c1.46-2.58,4.73-3.48,7.31-2.02l26.64,15.12c1.68,0.95,2.72,2.74,2.72,4.67
			c0,1.93-1.04,3.71-2.72,4.67l-26.44,14.98C153.71,423.23,152.8,423.45,151.9,423.45z"/>
		<path class="st5" d="M270.07,423.39c-0.9,0-1.82-0.23-2.66-0.72l-26.03-15.12c-1.64-0.95-2.64-2.7-2.64-4.59
			c0-1.89,1.01-3.64,2.64-4.59l25.83-14.98c2.53-1.47,5.78-0.61,7.25,1.93c1.47,2.53,0.61,5.78-1.93,7.25l-17.93,10.4l18.13,10.53
			c2.53,1.47,3.39,4.72,1.92,7.25C273.67,422.45,271.89,423.39,270.07,423.39z"/>
	</g>
	<path class="st5" d="M171.11,477.59c-0.37,0-0.75-0.05-1.13-0.15c-2.3-0.62-3.66-2.99-3.04-5.29c6-22.22,26.53-32.16,44.23-32.16
		c0.02,0,0.04,0,0.06,0c21.3,0.03,38.41,12.56,43.59,31.94c0.61,2.3-0.75,4.66-3.05,5.28c-2.3,0.62-4.66-0.75-5.28-3.05
		c-5.04-18.83-22.15-25.53-35.27-25.55c-0.02,0-0.03,0-0.05,0c-13.36,0-30.76,6.75-35.9,25.79
		C174.75,476.33,173.01,477.59,171.11,477.59z"/>
</g>
</svg>
