<?xml version="1.0" encoding="utf-8"?>
<!-- Generator: Adobe Illustrator 25.2.3, SVG Export Plug-In . SVG Version: 6.00 Build 0)  -->
<svg version="1.1" id="Capa_1" xmlns="http://www.w3.org/2000/svg" xmlns:xlink="http://www.w3.org/1999/xlink" x="0px" y="0px"
	 viewBox="0 0 421.76 643.38" style="enable-background:new 0 0 421.76 643.38;" xml:space="preserve">
<style type="text/css">
	.st0{fill:#F2F2F2;}
	.st1{fill:#EC5E2E;}
	.st2{fill:#291908;}
	.st3{fill:#CCCCCC;}
	.st4{font-family:'GothamBlack';}
	.st5{font-size:190.7113px;}
</style>
<g id="XMLID_11_">
	<g id="XMLID_19_">
		<path class="st0" d="M210.88,552.72c-162.05-2.91-162.02-243.73,0.01-246.61C372.93,309.02,372.9,549.84,210.88,552.72z"/>
		<path id="XMLID_20_" class="st1" d="M321.87,429.42c-2.49,145.9-219.51,145.88-221.98,0C102.38,283.52,319.4,283.54,321.87,429.42
			z"/>
	</g>
	<g id="XMLID_12_">
		<path id="XMLID_18_" class="st2" d="M182.39,408.45L182.39,408.45c0,4.43-3.63,8.06-8.06,8.06h-27.95c-4.43,0-8.06-3.63-8.06-8.06
			l0,0c0-4.43,3.63-8.06,8.06-8.06h27.95C178.76,400.39,182.39,404.01,182.39,408.45z"/>
		<path id="XMLID_17_" class="st2" d="M283.44,408.45L283.44,408.45c0,4.43-3.63,8.06-8.06,8.06h-27.95c-4.43,0-8.06-3.63-8.06-8.06
			l0,0c0-4.43,3.63-8.06,8.06-8.06h27.95C279.81,400.39,283.44,404.01,283.44,408.45z"/>
	</g>
	<path class="st2" d="M274.44,464.82H147.32c-2.04,0-3.69-1.65-3.69-3.69c0-2.04,1.65-3.69,3.69-3.69h127.11
		c2.04,0,3.69,1.65,3.69,3.69C278.13,463.17,276.48,464.82,274.44,464.82z"/>
</g>
<g>
	<text transform="matrix(1 0 0 1 151.3785 264.6998)" class="st3 st4 st5">2</text>
</g>
</svg>
