<?xml version="1.0" encoding="utf-8"?>
<!-- Generator: Adobe Illustrator 25.2.3, SVG Export Plug-In . SVG Version: 6.00 Build 0)  -->
<svg version="1.1" id="Capa_1" xmlns="http://www.w3.org/2000/svg" xmlns:xlink="http://www.w3.org/1999/xlink" x="0px" y="0px"
	 viewBox="0 0 421.76 643.38" style="enable-background:new 0 0 421.76 643.38;" xml:space="preserve">
<style type="text/css">
	.st0{fill:#CCCCCC;}
	.st1{font-family:'GothamBlack';}
	.st2{font-size:190.7113px;}
	.st3{fill:#004C73;}
	.st4{fill:#F2F2F2;}
	.st5{fill:#7BC144;}
	.st6{fill:#291908;}
	.st7{fill:#FFFFFF;}
</style>
<g>
	<text transform="matrix(1 0 0 1 170.6407 270.2462)" class="st0 st1 st2">1</text>
</g>
<path class="st3" d="M210.88,600L210.88,600c-92.68,0-167.81-75.13-167.81-167.81V213.77c0-92.68,75.13-167.81,167.81-167.81h0
	c92.68,0,167.81,75.13,167.81,167.81v218.42C378.69,524.87,303.56,600,210.88,600z"/>
<g id="XMLID_29_">
	<g id="XMLID_31_">
		<path class="st4" d="M210.88,546.76c-162.05-2.91-162.03-243.73,0.01-246.61C372.93,303.05,372.91,543.88,210.88,546.76z"/>
		<path id="XMLID_32_" class="st5" d="M321.87,423.45c-2.49,145.9-219.51,145.88-221.98,0C102.38,277.55,319.4,277.58,321.87,423.45
			z"/>
	</g>
	<g id="XMLID_30_">
		<path class="st6" d="M145.29,420.92c-2.34,0-4.26-1.88-4.31-4.23c-0.16-8.33,3.37-15.22,9.68-18.92
			c5.94-3.48,13.59-3.5,19.48-0.04c6.23,3.65,9.71,10.51,9.56,18.83c-0.04,2.38-2.05,4.29-4.39,4.23c-2.38-0.04-4.27-2.01-4.23-4.39
			c0.1-5.19-1.78-9.17-5.29-11.23c-3.25-1.9-7.48-1.89-10.77,0.04c-3.59,2.11-5.52,6.12-5.42,11.32c0.05,2.38-1.85,4.35-4.23,4.39
			C145.35,420.92,145.32,420.92,145.29,420.92z"/>
		<path class="st6" d="M246.48,420.92c-2.34,0-4.26-1.88-4.31-4.23c-0.16-8.33,3.37-15.22,9.68-18.92
			c5.94-3.48,13.59-3.5,19.48-0.04c6.23,3.65,9.71,10.51,9.56,18.83c-0.04,2.35-1.97,4.23-4.31,4.23c-0.03,0-0.05,0-0.08,0
			c-2.38-0.04-4.27-2.01-4.23-4.39c0.1-5.19-1.78-9.17-5.29-11.23c-3.25-1.9-7.48-1.89-10.77,0.04c-3.59,2.11-5.52,6.12-5.42,11.32
			c0.05,2.38-1.85,4.35-4.23,4.39C246.54,420.92,246.51,420.92,246.48,420.92z"/>
	</g>
	<path class="st6" d="M210.69,482.31c-0.02,0-0.03,0-0.04,0c-14.5-0.02-26.69-9.36-31.8-24.37c-0.77-2.25,0.44-4.7,2.69-5.47
		c2.25-0.77,4.7,0.44,5.47,2.69c3.89,11.41,12.95,18.51,23.65,18.53c8.55,0,19.35-4.9,24.09-18.71c0.77-2.25,3.23-3.45,5.48-2.68
		c2.25,0.77,3.45,3.23,2.68,5.48C237.79,472.68,225.14,482.31,210.69,482.31z"/>
</g>
<text transform="matrix(1 0 0 1 151.6653 264.6996)" class="st7 st1 st2">3</text>
</svg>
