<?xml version="1.0" encoding="utf-8"?>
<!-- Generator: Adobe Illustrator 25.2.3, SVG Export Plug-In . SVG Version: 6.00 Build 0)  -->
<svg version="1.1" id="Capa_1" xmlns="http://www.w3.org/2000/svg" xmlns:xlink="http://www.w3.org/1999/xlink" x="0px" y="0px"
	 viewBox="0 0 659.56 546.62" style="enable-background:new 0 0 659.56 546.62;" xml:space="preserve">
<style type="text/css">
	.st0{fill:#CCCCCC;}
	.st1{font-family:'GothamBlack';}
	.st2{font-size:199.8265px;}
	.st3{fill:#F2F2F2;}
	.st4{fill:#7BC144;}
	.st5{fill:#291908;}
	.st6{fill:#004C73;}
	.st7{font-family:'GothamBook';}
	.st8{font-size:73.6164px;}
</style>
<text transform="matrix(1 0 0 1 128.769 187.0007)" class="st0 st1 st2">3</text>
<g id="XMLID_53_">
	<g id="XMLID_55_">
		<path class="st3" d="M190.08,522.26c-196.61-3.53-196.57-295.7,0.01-299.2C386.68,226.59,386.65,518.76,190.08,522.26z"/>
		<path id="XMLID_56_" class="st4" d="M324.73,372.66c-3.02,177.01-266.32,176.98-269.32-0.01
			C58.44,195.65,321.74,195.68,324.73,372.66z"/>
	</g>
	<g id="XMLID_54_">
		<path class="st5" d="M110.51,369.58c-2.84,0-5.17-2.28-5.23-5.13c-0.19-10.1,4.09-18.47,11.74-22.95
			c7.21-4.22,16.48-4.24,23.64-0.05c7.56,4.42,11.78,12.75,11.6,22.84c-0.05,2.89-2.48,5.21-5.33,5.13
			c-2.89-0.05-5.19-2.44-5.13-5.33c0.12-6.29-2.16-11.13-6.42-13.62c-3.94-2.31-9.07-2.29-13.07,0.05
			c-4.36,2.55-6.69,7.43-6.57,13.73c0.05,2.89-2.24,5.27-5.13,5.33C110.57,369.58,110.54,369.58,110.51,369.58z"/>
		<path class="st5" d="M233.27,369.58c-2.84,0-5.17-2.28-5.23-5.13c-0.19-10.1,4.09-18.47,11.74-22.95
			c7.2-4.22,16.48-4.24,23.64-0.05c7.56,4.42,11.78,12.75,11.6,22.84c-0.05,2.85-2.38,5.13-5.23,5.13c-0.03,0-0.07,0-0.1,0
			c-2.89-0.05-5.19-2.44-5.13-5.33c0.12-6.29-2.16-11.13-6.42-13.62c-3.94-2.31-9.07-2.29-13.07,0.05
			c-4.36,2.55-6.69,7.43-6.57,13.73c0.05,2.89-2.24,5.27-5.13,5.33C233.33,369.58,233.3,369.58,233.27,369.58z"/>
	</g>
	<path class="st5" d="M189.85,444.06c-0.02,0-0.04,0-0.05,0c-17.59-0.02-32.38-11.35-38.58-29.56c-0.93-2.73,0.53-5.71,3.26-6.64
		c2.73-0.93,5.71,0.53,6.64,3.26c4.72,13.85,15.71,22.46,28.69,22.48c10.38,0,23.47-5.94,29.23-22.7c0.94-2.73,3.91-4.18,6.65-3.25
		c2.73,0.94,4.18,3.91,3.25,6.65C222.72,432.39,207.38,444.06,189.85,444.06z"/>
</g>
<text transform="matrix(1 0 0 1 367.8745 347.2195)"><tspan x="0" y="0" class="st6 st7 st8">Me </tspan><tspan x="0" y="80.98" class="st6 st7 st8">gusta</tspan></text>
</svg>
