<?xml version="1.0" encoding="utf-8"?>
<!-- Generator: Adobe Illustrator 25.2.3, SVG Export Plug-In . SVG Version: 6.00 Build 0)  -->
<svg version="1.1" id="Capa_1" xmlns="http://www.w3.org/2000/svg" xmlns:xlink="http://www.w3.org/1999/xlink" x="0px" y="0px"
	 viewBox="0 0 421.76 643.38" style="enable-background:new 0 0 421.76 643.38;" xml:space="preserve">
<style type="text/css">
	.st0{fill:#CCCCCC;}
	.st1{font-family:'GothamBlack';}
	.st2{font-size:190.7113px;}
	.st3{fill:#F2F2F2;}
	.st4{fill:#119BDC;}
	.st5{fill:#291908;}
	.st6{clip-path:url(#XMLID_2_);fill:#FF5A58;}
	.st7{opacity:0.6;fill:#FF758A;}
</style>
<g>
	<text transform="matrix(1 0 0 1 145.1814 264.6998)" class="st0 st1 st2">4</text>
</g>
<g id="XMLID_5_">
	<g id="XMLID_51_">
		<path class="st3" d="M210.88,546.76c-162.05-2.91-162.02-243.73,0.01-246.61C372.93,303.05,372.91,543.88,210.88,546.76z"/>
		<path id="XMLID_52_" class="st4" d="M321.87,423.45c-2.49,145.9-219.51,145.88-221.98,0C102.38,277.55,319.4,277.58,321.87,423.45
			z"/>
	</g>
	<g id="XMLID_40_">
		<path id="XMLID_50_" class="st5" d="M170.86,439.99c-1.76,0.01-2.98,2.44-2.31,4.67c14.12,54.18,73.95,53.35,88.02-0.31
			c0.69-2.23-0.54-4.7-2.32-4.69L170.86,439.99z"/>
		<g id="XMLID_41_">
			<defs>
				<path id="XMLID_42_" d="M170.86,439.99c-1.76,0.01-2.98,2.44-2.31,4.67c14.12,54.18,73.95,53.35,88.02-0.31
					c0.69-2.23-0.54-4.7-2.32-4.69L170.86,439.99z"/>
			</defs>
			<clipPath id="XMLID_2_">
				<use xlink:href="#XMLID_42_"  style="overflow:visible;"/>
			</clipPath>
			<path id="XMLID_49_" class="st6" d="M243.24,485.41c-0.02,30.26-62.6,30.25-62.62,0C180.64,455.15,243.22,455.15,243.24,485.41z"
				/>
		</g>
	</g>
	<g id="XMLID_39_">
		<path class="st5" d="M245.41,419.3c-2.34,0-4.26-1.88-4.31-4.23c-0.16-8.33,3.37-15.22,9.68-18.92c5.94-3.48,13.59-3.5,19.48-0.04
			c6.23,3.65,9.71,10.51,9.56,18.83c-0.04,2.38-2.06,4.31-4.39,4.23c-2.38-0.04-4.27-2.01-4.23-4.39c0.1-5.19-1.78-9.17-5.29-11.23
			c-3.25-1.9-7.48-1.89-10.77,0.04c-3.59,2.11-5.52,6.12-5.42,11.32c0.05,2.38-1.85,4.35-4.23,4.39
			C245.47,419.3,245.44,419.3,245.41,419.3z"/>
		<path class="st5" d="M146.24,419.3c-2.34,0-4.26-1.88-4.31-4.23c-0.16-8.33,3.37-15.22,9.68-18.92c5.94-3.48,13.59-3.5,19.48-0.04
			c6.23,3.65,9.71,10.51,9.56,18.83c-0.04,2.35-1.97,4.23-4.31,4.23c-0.03,0-0.05,0-0.08,0c-2.38-0.04-4.27-2.01-4.23-4.39
			c0.1-5.19-1.78-9.17-5.29-11.23c-3.25-1.9-7.48-1.89-10.77,0.04c-3.59,2.11-5.52,6.12-5.42,11.32c0.05,2.38-1.85,4.35-4.23,4.39
			C146.3,419.3,146.27,419.3,146.24,419.3z"/>
	</g>
	<g id="XMLID_6_">
		<path id="XMLID_8_" class="st7" d="M149.32,440.13c-0.1,21.12-32.21,21.12-32.3,0C117.11,419,149.23,419.01,149.32,440.13z"/>
		<path id="XMLID_7_" class="st7" d="M304.74,440.13c-0.1,21.12-32.21,21.12-32.3,0C272.53,419,304.65,419.01,304.74,440.13z"/>
	</g>
</g>
</svg>
